<svg xmlns="http://www.w3.org/2000/svg" class="h-10" viewBox="0 0 669.78 157.889"><g><path fill="#33383c" d="M321.71 149.62h-5.43a8.34 8.34 0 01-6.08-2.1 8.05 8.05 0 01-2.14-6.03v-15.8a8.05 8.05 0 012.14-6.04 8.34 8.34 0 016.08-2.1h5.43a8.3 8.3 0 016.06 2.13 8 8 0 012.17 6v2.34a.97.97 0 01-1.1 1.1h-4.18c-.7 0-1.05-.36-1.05-1.1v-2.04a2.48 2.48 0 00-2.94-2.94h-3.4a3.05 3.05 0 00-2.21.67 3.14 3.14 0 00-.68 2.27v15.2a3.14 3.14 0 00.68 2.27 3.06 3.06 0 002.22.67h3.39a2.48 2.48 0 002.94-2.94v-2.04c0-.73.35-1.1 1.04-1.1h4.2a.97.97 0 011.1 1.1v2.34a8.01 8.01 0 01-2.17 6 8.3 8.3 0 01-6.06 2.13M347.05 149.62h-4.44a8.34 8.34 0 01-6.08-2.1 8.04 8.04 0 01-2.15-6.03v-9.17a8.05 8.05 0 012.15-6.03 8.34 8.34 0 016.08-2.1h4.44a8.3 8.3 0 016.05 2.12 8.03 8.03 0 012.17 6v9.18a8.02 8.02 0 01-2.17 6 8.3 8.3 0 01-6.05 2.12m-3.5-5.43h2.55a3.2 3.2 0 002.26-.65 3.04 3.04 0 00.68-2.24v-8.78a3.04 3.04 0 00-.68-2.24 3.22 3.22 0 00-2.26-.65h-2.55a2.42 2.42 0 00-2.89 2.9v8.77a2.42 2.42 0 002.9 2.89M369.57 149.62h-2.04a7.6 7.6 0 01-5.81-2.1 8.48 8.48 0 01-1.97-6.03v-9.17a8.48 8.48 0 011.97-6.03 7.6 7.6 0 015.8-2.1h2.05a6.69 6.69 0 012.94.67 3.76 3.76 0 011.94 2.02h.2v-11.26a.93.93 0 011.05-1.05h4.24a.93.93 0 011.04 1.05v32.95a.93.93 0 01-1.04 1.05h-4.24a.93.93 0 01-1.05-1.05v-1.65h-.2a3.78 3.78 0 01-1.94 2.02 6.69 6.69 0 01-2.94.68m5.08-9.28v-6.88q0-3.78-3.43-3.78h-2.25a3.04 3.04 0 00-2.24.67 3.23 3.23 0 00-.65 2.27v8.57a3.23 3.23 0 00.65 2.27 3.05 3.05 0 002.24.67h2.25q3.44 0 3.43-3.79M386.72 119.9v-4.33a.88.88 0 011-1h4.33c.67 0 1 .31 1 .95v4.38a.88.88 0 01-1 1h-4.33a.88.88 0 01-1-1m0 28.66v-23.32c0-.7.33-1.05 1-1.05H392a.93.93 0 011.05 1.05v23.33a1.13 1.13 0 01-.23.84 1.16 1.16 0 01-.77.2h-4.29a.92.92 0 01-1.04-1.04M404.06 149.62h-4.24a.93.93 0 01-1.04-1.05v-23.33a.93.93 0 011.05-1.05h4.23a.93.93 0 011.05 1.05v1.64h.2q1.1-2.69 4.88-2.69h1.6q7.83 0 7.83 8.13v16.25c0 .7-.37 1.04-1.1 1.04h-4.19a.93.93 0 01-1.05-1.04v-15.95a2.48 2.48 0 00-2.93-2.94h-1.8q-3.45 0-3.45 3.78v15.1a.92.92 0 01-1.04 1.05M433.82 148.47h-1.64a7.58 7.58 0 01-5.8-2.1 8.47 8.47 0 01-1.97-6.03v-8.02a8.04 8.04 0 012.14-6.04 8.34 8.34 0 016.07-2.1h11.53q1.1 0 1.1 1.05v24.58a7.92 7.92 0 01-2.17 5.98 8.36 8.36 0 01-6.06 2.1h-9.57a1.16 1.16 0 01-.83-.23 1.08 1.08 0 01-.22-.77v-3.44a.93.93 0 011.04-1.04h8.53a3.13 3.13 0 002.27-.68 3.05 3.05 0 00.67-2.22v-3.78h-.2a3.9 3.9 0 01-1.94 2.04 6.5 6.5 0 01-2.94.7m5.08-9.27v-8.97c0-.37-.2-.55-.6-.55h-4.68a3.02 3.02 0 00-2.24.67 3.2 3.2 0 00-.65 2.27v7.43a2.42 2.42 0 002.89 2.9h1.84q3.44 0 3.45-3.75M461.39 141.44v-1a.93.93 0 011.05-1.05h4.24a.92.92 0 011.04 1.05v.4a3.51 3.51 0 00.75 2.6 4.07 4.07 0 002.74.7h2.35a2.9 2.9 0 003.48-3.55v-.6a2.5 2.5 0 00-1.17-2.22 6.2 6.2 0 00-2.91-.92 31.09 31.09 0 01-3.77-.57 24.42 24.42 0 01-3.76-1.1 5.9 5.9 0 01-2.92-2.65 9.8 9.8 0 01-1.16-5.05v-1.74a8.06 8.06 0 012.19-6.03 8.34 8.34 0 016.08-2.14h4.98a8.41 8.41 0 016.14 2.14 8.06 8.06 0 012.19 6.03v.95a.93.93 0 01-1.05 1.04h-4.23a.93.93 0 01-1.05-1.04v-.3a3.6 3.6 0 00-.75-2.65 4.07 4.07 0 00-2.74-.7h-1.94a3.76 3.76 0 00-2.77.77 4.54 4.54 0 00-.72 3.02v.95q0 2.34 4.08 2.69a25.29 25.29 0 017.53 1.7 6.41 6.41 0 012.92 2.66 9.3 9.3 0 011.17 4.91v1.7a8.05 8.05 0 01-2.2 6.03 8.32 8.32 0 01-6.08 2.15h-5.43a8.33 8.33 0 01-6.08-2.15 8.05 8.05 0 01-2.2-6.03M504.76 145.18v3.45a1.08 1.08 0 01-.22.77 1.18 1.18 0 01-.83.22h-7.43a8.33 8.33 0 01-6.08-2.1 8.03 8.03 0 01-2.14-6.02v-9.18a8.04 8.04 0 012.14-6.03 8.33 8.33 0 016.08-2.1h7.43a.93.93 0 011.05 1.05v3.44a1.1 1.1 0 01-.22.78 1.18 1.18 0 01-.83.22h-6.43a3.04 3.04 0 00-2.22.67 3.12 3.12 0 00-.67 2.27v8.57a3.12 3.12 0 00.67 2.27 3.05 3.05 0 002.22.68h6.43a.93.93 0 011.05 1.04M514.33 149.62h-4.24a.93.93 0 01-1.05-1.05v-32.95a.93.93 0 011.05-1.05h4.24a.93.93 0 011.04 1.05v11.26h.2q1.1-2.69 4.89-2.69h1.6q7.82 0 7.82 8.13v16.25c0 .7-.37 1.04-1.1 1.04h-4.18a.93.93 0 01-1.05-1.04v-15.95a2.48 2.48 0 00-2.94-2.94h-1.8q-3.44 0-3.44 3.78v15.1a.92.92 0 01-1.04 1.05M547.28 149.62h-4.44a8.34 8.34 0 01-6.08-2.1 8.04 8.04 0 01-2.14-6.03v-9.17a8.05 8.05 0 012.14-6.03 8.34 8.34 0 016.08-2.1h4.44a8.3 8.3 0 016.05 2.12 8.01 8.01 0 012.17 6v9.18a8 8 0 01-2.17 6 8.3 8.3 0 01-6.05 2.12m-3.5-5.43h2.55a3.21 3.21 0 002.27-.65 3.04 3.04 0 00.67-2.24v-8.78a3.04 3.04 0 00-.67-2.24 3.23 3.23 0 00-2.27-.65h-2.54a2.42 2.42 0 00-2.9 2.9v8.77a2.42 2.42 0 002.9 2.89M572.64 149.62h-4.43a8.33 8.33 0 01-6.08-2.1 8.04 8.04 0 01-2.14-6.03v-9.17a8.04 8.04 0 012.14-6.03 8.33 8.33 0 016.08-2.1h4.43a8.3 8.3 0 016.06 2.12 8.01 8.01 0 012.17 6v9.18a8 8 0 01-2.17 6 8.3 8.3 0 01-6.06 2.12m-3.48-5.43h2.54a3.2 3.2 0 002.27-.65 3.02 3.02 0 00.67-2.24v-8.78a3.03 3.03 0 00-.67-2.24 3.22 3.22 0 00-2.27-.65h-2.54a2.42 2.42 0 00-2.9 2.9v8.77a2.42 2.42 0 002.9 2.89M591.4 149.62h-4.25a.93.93 0 01-1.04-1.05v-32.95a.93.93 0 011.04-1.05h4.24a.92.92 0 011.05 1.05v32.95a.92.92 0 01-1.05 1.05M668.18 52.37L621.06 23.3a1.45 1.45 0 00-2.31 1.23v1.84c0 1.97.56 2.3 1.34 2.78l43.81 27.33-43.8 27.33c-.79.48-1.35.81-1.35 2.79v1.83c0 1.25 1.1 1.88 2.31 1.25l47.12-29.08a3.3 3.3 0 001.6-3.15v-1.93a3.3 3.3 0 00-1.6-3.15" class="second-color"/><path fill="#cb1e40" d="M49.5 5.32Q44.05 0 34.48 0H2.24A1.97 1.97 0 000 2.24v85.1a1.97 1.97 0 002.23 2.22H34.5q9.56 0 15-5.38c3.62-3.58 5.45-8.57 5.45-14.95V17.54c0-6.47-1.82-8.69-5.44-12.22m-7.4 63.4q0 9.7-9.45 9.7H14.17a1.27 1.27 0 01-1.45-1.45V12.46c0-.87.48-1.31 1.45-1.31h18.47c6.3 0 9.45.44 9.45 6.9zM77.35 22.7h-8.39c-1.4 0-2.09.74-2.09 2.22v62.42a1.96 1.96 0 002.22 2.22h8.4a2.32 2.32 0 001.64-.46 2.55 2.55 0 00.46-1.76V24.92a1.97 1.97 0 00-2.24-2.22M77.48.3h-8.52a1.85 1.85 0 00-2.09 2.11v9.15c0 1.48.7 2.22 2.1 2.22h8.51c1.4 0 2.1-.74 2.1-2.22V2.4a1.86 1.86 0 00-2.1-2.1M140.15 22.7h-29.37q-9.57 0-14.94 5.3T90.46 43v22.95q0 9.71 5.05 15.02t14.49 5.3h5.9q9.97 0 13.25-7.08h.52v9.97q0 9.7-9.57 9.7H97.4a1.97 1.97 0 00-2.22 2.24v6.81c0 1.4.74 2.1 2.22 2.1h24.65q9.57 0 15.02-5.3 5.43-5.33 5.44-14.89v-64.9c0-1.49-.78-2.23-2.36-2.23M129.66 64q0 11-10.75 11h-6.29q-9.3 0-9.3-9.7V43.54q0-9.7 9.3-9.7h15.6c.96 0 1.44.43 1.44 1.3zM164.93.3h-8.52a1.86 1.86 0 00-2.1 2.11v9.15q0 2.21 2.1 2.22h8.52q2.1 0 2.1-2.22V2.4a1.86 1.86 0 00-2.1-2.1M164.8 22.7h-8.39q-2.1 0-2.1 2.22v62.42a1.97 1.97 0 002.24 2.22h8.39a2.29 2.29 0 001.63-.46 2.49 2.49 0 00.47-1.76V24.92a1.97 1.97 0 00-2.23-2.22M210.04 78.41h-5.12q-9.84 0-9.83-9.56v-33.7c0-.87.48-1.31 1.44-1.31h12.2c1.57 0 2.36-.7 2.36-2.1v-6.82c0-1.48-.8-2.22-2.36-2.22h-12.2c-.96 0-1.44-.44-1.44-1.31V2.6a1.97 1.97 0 00-2.23-2.23h-8.26c-1.57 0-2.36.74-2.36 2.23v18.77a1.16 1.16 0 01-1.31 1.32h-6.3a1.96 1.96 0 00-2.22 2.22v6.82a2.28 2.28 0 00.46 1.64 2.5 2.5 0 001.76.46h6.3a1.16 1.16 0 011.3 1.3V69.5q0 9.58 5.52 14.81 5.5 5.26 15.2 5.25h7.08c1.58 0 2.36-.7 2.36-2.1v-6.81q0-2.24-2.36-2.24M268.11 22.7h-29.37q-9.7 0-15.01 5.3T218.43 43v26.22q0 9.58 5.3 14.96t15.02 5.37h5.1q10.1 0 13.24-6.95h.53v4.73a1.97 1.97 0 002.23 2.22h8.26c1.57 0 2.36-.74 2.36-2.22V24.92c0-1.48-.79-2.22-2.36-2.22m-10.49 44.57q0 11.15-10.75 11.14h-6.3q-9.43 0-9.43-9.7V43.54q0-9.7 9.44-9.7h15.6c.96 0 1.44.43 1.44 1.3zM292.76.18h-8.26a1.97 1.97 0 00-2.23 2.23v84.92a1.97 1.97 0 002.23 2.23h8.26a1.97 1.97 0 002.23-2.23V2.42a1.98 1.98 0 00-2.23-2.23" class="main-color"/><path fill="#33383c" d="M360.8 0H357c-.87 0-1.3.53-1.3 1.58v41.04c0 .79-.44 1.18-1.32 1.18h-36.7c-.88 0-1.32-.4-1.32-1.18V1.58c0-1.05-.48-1.58-1.44-1.58h-3.8c-.88 0-1.32.53-1.32 1.58v86.4c0 1.06.44 1.58 1.32 1.58h3.8c.96 0 1.44-.52 1.44-1.58v-37.1c0-.78.44-1.18 1.32-1.18h36.7c.88 0 1.31.4 1.31 1.18v37.1c0 1.06.44 1.58 1.32 1.58h3.8c.96 0 1.44-.52 1.44-1.58V1.58c0-1.05-.48-1.58-1.44-1.58M406.3 22.7h-11.27q-8.52 0-13.44 4.98t-4.91 13.62v29.64q0 8.65 4.9 13.63t13.45 4.99h11.27q8.53 0 13.51-4.99t4.98-13.63V41.3q0-8.65-4.98-13.62-4.99-4.99-13.51-4.98m11.94 48.1c0 4.12-1.08 7.28-3.22 9.52s-5.22 3.34-9.24 3.34h-10.22c-4.03 0-7.1-1.12-9.18-3.34s-3.15-5.4-3.15-9.51V41.45q0-6.17 3.15-9.51c2.09-2.24 5.15-3.35 9.18-3.35h10.22q6.03 0 9.24 3.35c2.14 2.22 3.22 5.4 3.22 9.5zM483.26 22.7h-3.79c-.97 0-1.45.52-1.45 1.56v46.55c0 4.11-1.21 7.27-3.6 9.5s-5.7 3.35-9.9 3.35h-8.53c-4.02 0-7.08-1.13-9.18-3.41s-3.15-5.47-3.15-9.57V24.26c0-1.04-.48-1.56-1.43-1.56h-3.81c-.87 0-1.3.52-1.3 1.56v46.68q0 8.66 4.84 13.63t13.24 4.99h8.66q10.22 0 13.63-6.82h.53v5.24c0 1.06.48 1.58 1.45 1.58h3.79c.87 0 1.32-.52 1.32-1.58V24.26c0-1.04-.45-1.56-1.32-1.56M527.2 55.21l-16.4-6.56a15.78 15.78 0 01-6.24-3.54 7.97 7.97 0 01-2.03-5.77v-3.02a7.16 7.16 0 012.69-5.5q2.7-2.36 8.06-2.36h20.59q1.44 0 1.44-1.3v-3.03a1.27 1.27 0 00-1.44-1.43h-21.23q-16.93 0-16.93 15.34 0 6.3 2.82 9.82 2.82 3.55 9.51 6.16l16.39 6.3q7.35 2.63 7.35 11.15v3.14q0 9.18-11.8 9.18H497.8c-.96 0-1.44.44-1.44 1.31v3.01a1.27 1.27 0 001.44 1.44h22.82q9.17 0 13.57-3.8t4.4-11.66q0-7.87-2.3-12.26c-1.52-2.93-4.57-5.14-9.1-6.62M578.58 22.7H567.3q-8.53 0-13.44 4.98t-4.92 13.62v29.64q0 8.66 4.92 13.63t13.44 4.99h27.4a1.27 1.27 0 001.45-1.45v-3a1.28 1.28 0 00-1.45-1.45h-26.88q-6.02 0-9.17-3.34c-2.1-2.24-3.15-5.4-3.15-9.51v-10.1a1.04 1.04 0 011.18-1.18h38.81a1.4 1.4 0 001.58-1.57V41.3q0-8.65-4.99-13.62-4.98-4.99-13.5-4.98m11.93 30.4a1.04 1.04 0 01-1.17 1.2h-32.65a1.04 1.04 0 01-1.18-1.2V41.46q0-6.17 3.15-9.51t9.17-3.35h10.36q6.03 0 9.17 3.35t3.15 9.5z" class="second-color"/></g></svg>